# xmcd CD database file
#
# Track frame offsets:
#	182
#	13445
#	25555
#	41482
#	52270
#	67412
#	86210
#	98772
#	112230
#	125092
#	146602
#	163247
#	174127
#	188870
#	207825
#	225755
#	247382
#	256925
#
# Disc length: 3729 seconds
#
# Revision: 1
# Processed by: cddbd v1.5.1PL2 Copyright (c) Steve Scherf et al.
# Submitted via: CDex 1.51
#
DISCID=0c0e8f12
DTITLE=Charlie Mc Coy - Live in Paris
DYEAR=1992
DGENRE=Country
TTITLE0=Scotland
TTITLE1=I'm So Lonesome I Could Cry
TTITLE2=One O'Clock Jump
TTITLE3=Cold Cold Heart
TTITLE4=Lark In The Morning
TTITLE5=I Heard It Through The Grapevine
TTITLE6=John Henry
TTITLE7=You Don't Know Me
TTITLE8=Wabash Canonball
TTITLE9=Georgia On My Mind
TTITLE10=Whiskey Before Breakfast
TTITLE11=Boogie Woogie
TTITLE12=Barefootin'
TTITLE13=The Funky Duck
TTITLE14=For Jim
TTITLE15=Stand By Me
TTITLE16=Shenandoha
TTITLE17=Orange Blossom Special and Final
EXTD=YEAR: 1992
EXTT0=
EXTT1=
EXTT2=
EXTT3=
EXTT4=
EXTT5=
EXTT6=
EXTT7=
EXTT8=
EXTT9=
EXTT10=
EXTT11=
EXTT12=
EXTT13=
EXTT14=
EXTT15=
EXTT16=
EXTT17=
PLAYORDER=
